<!-- Generated by IcoMoon.io -->
<svg version="1.1" xmlns="http://www.w3.org/2000/svg" width="32" height="32" viewBox="0 0 32 32">
<title>assets</title>
<path d="M15.957 0.086c-8.813 0-15.957 7.144-15.957 15.957s7.144 15.957 15.957 15.957c8.813 0 15.957-7.144 15.957-15.957s-7.144-15.957-15.957-15.957zM17.301 24.239v2.576h-2.199v-2.488c-1.51-0.178-3.22-0.866-4.398-1.932l1.444-2.199c1.222 0.955 2.399 1.51 3.665 1.51 1.555 0 2.266-0.689 2.266-1.955 0-2.998-6.752-2.732-6.752-7.374 0-2.421 1.444-4.087 3.775-4.531v-2.576h2.199v2.532c1.599 0.222 2.732 1.022 3.687 2.021l-1.644 1.866c-0.91-0.844-1.71-1.311-2.843-1.311-1.31 0-2.043 0.622-2.043 1.844 0 2.754 6.752 2.332 6.752 7.307 0 2.421-1.355 4.22-3.909 4.709v0z"></path>
</svg>
