<?xml version="1.0" encoding="utf-8"?>
<!-- Generated by IcoMoon.io -->
<!DOCTYPE svg PUBLIC "-//W3C//DTD SVG 1.1//EN" "http://www.w3.org/Graphics/SVG/1.1/DTD/svg11.dtd">
<svg version="1.1" xmlns="http://www.w3.org/2000/svg" xmlns:xlink="http://www.w3.org/1999/xlink" width="32" height="32" viewBox="0 0 32 32">
<path d="M23.653 18.14h-7.942c-1.022 0-1.853-0.832-1.853-1.853v-9.327c0-1.022 0.832-1.853 1.853-1.853s1.853 0.832 1.853 1.853v7.474h6.089c1.022 0 1.853 0.832 1.853 1.853s-0.832 1.853-1.853 1.853zM16 0c-8.838 0-16 7.164-16 16 0 8.838 7.162 16 16 16 8.836 0 16-7.162 16-16 0-8.836-7.164-16-16-16z"></path>
</svg>
