<!-- Generated by IcoMoon.io -->
<svg version="1.1" xmlns="http://www.w3.org/2000/svg" width="32" height="32" viewBox="0 0 32 32">
<title>sun</title>
<path d="M17.177 0.79l1.595 3.9c0.263 0.644 1.042 0.897 1.633 0.531l3.582-2.217c0.968-0.599 2.175 0.278 1.905 1.384l-1.002 4.092c-0.165 0.676 0.316 1.338 1.009 1.389l4.201 0.312c1.135 0.084 1.597 1.504 0.728 2.239l-3.216 2.722c-0.531 0.449-0.531 1.268 0 1.717l3.216 2.722c0.869 0.736 0.408 2.155-0.728 2.239l-4.201 0.312c-0.694 0.051-1.175 0.714-1.009 1.389l1.002 4.092c0.271 1.106-0.937 1.983-1.905 1.384l-3.582-2.217c-0.591-0.366-1.37-0.113-1.633 0.531l-1.595 3.9c-0.431 1.054-1.923 1.054-2.354 0l-1.595-3.9c-0.263-0.644-1.042-0.897-1.633-0.531l-3.582 2.217c-0.968 0.599-2.175-0.278-1.905-1.384l1.002-4.092c0.165-0.676-0.316-1.338-1.010-1.389l-4.202-0.312c-1.135-0.084-1.597-1.504-0.728-2.239l3.216-2.722c0.531-0.449 0.531-1.268 0-1.717l-3.216-2.722c-0.869-0.736-0.408-2.155 0.728-2.239l4.202-0.312c0.694-0.051 1.175-0.714 1.010-1.389l-1.002-4.092c-0.271-1.106 0.937-1.983 1.905-1.384l3.582 2.217c0.591 0.366 1.37 0.113 1.633-0.531l1.595-3.9c0.431-1.054 1.923-1.054 2.354 0zM24.5 16c0-4.687-3.813-8.5-8.5-8.5s-8.5 3.813-8.5 8.5 3.813 8.5 8.5 8.5c4.687 0 8.5-3.813 8.5-8.5zM22.5 16c0 3.584-2.916 6.5-6.5 6.5s-6.5-2.916-6.5-6.5 2.916-6.5 6.5-6.5 6.5 2.916 6.5 6.5z"></path>
</svg>
